# xmcd CD database file
#
# Track frame offsets:
#	150
#	23577
#	47035
#	64300
#	80382
#	92500
#	113040
#	128157
#	140725
#	156910
#	184745
#	207582
#	226302
#	243647
#	261480
#	277567
#
# Disc length: 4468 seconds
#
# Revision: 3
# Processed by: cddbd v1.5.2PL0 Copyright (c) Steve Scherf et al.
# Submitted via: CDex 1.51
#
DISCID=df117210
DTITLE=Joe Cocker - Blues and Ballads
DYEAR=1993
DGENRE=Blues
TTITLE0=With a little help from my friends
TTITLE1=Let´s go get stoned
TTITLE2=It´s a sin when you love somebody
TTITLE3=Something
TTITLE4=You are so beautiful
TTITLE5=Black-Eyed Blues
TTITLE6=Forgive me now
TTITLE7=Guilty
TTITLE8=Jack-a-diamonds
TTITLE9=St. James Infirmary Blues
TTITLE10=Let it be
TTITLE11=Oh Mama
TTITLE12=Lucinda
TTITLE13=Early in the morning
TTITLE14=I can stand a little rain
TTITLE15=Blue Medley
EXTD=YEAR: 1993
EXTT0=
EXTT1=
EXTT2=
EXTT3=
EXTT4=
EXTT5=
EXTT6=
EXTT7=
EXTT8=
EXTT9=
EXTT10=
EXTT11=
EXTT12=
EXTT13=
EXTT14=
EXTT15=I´ll drown in my own tears\nWhen something is wrong with my baby\nI´ve been loving you too long\n
PLAYORDER=
